<svg width="22" height="23" viewBox="0 0 22 23" fill="none" xmlns="http://www.w3.org/2000/svg">
<path fill-rule="evenodd" clip-rule="evenodd" d="M19.4079 12.1321C20.5098 12.1321 21.0608 12.1321 21.1963 12.4621C21.3319 12.7922 20.9399 13.1794 20.1561 13.9539L11.7482 22.2608C11.3951 22.6096 11.2186 22.784 11 22.784C10.7814 22.784 10.6049 22.6096 10.2518 22.2608L1.84392 13.9539C1.06006 13.1794 0.668138 12.7922 0.803688 12.4621C0.939235 12.1321 1.49018 12.1321 2.59208 12.1321L6.12497 12.1321C6.62679 12.1321 6.8777 12.1321 7.03359 11.9762C7.18949 11.8203 7.18949 11.5694 7.18949 11.0676L7.18949 1.06452C7.18949 0.562698 7.18949 0.311789 7.34538 0.155894C7.50128 -6.33759e-07 7.75219 -6.22792e-07 8.25401 -6.00856e-07L13.746 -3.60794e-07C14.2478 -3.38859e-07 14.4987 -3.27891e-07 14.6546 0.155894C14.8105 0.311789 14.8105 0.562698 14.8105 1.06452L14.8105 11.0676C14.8105 11.5694 14.8105 11.8203 14.9664 11.9762C15.1223 12.1321 15.3732 12.1321 15.875 12.1321L19.4079 12.1321Z" fill="black"/>
</svg>
