<svg width="77" height="72" viewBox="0 0 77 72" fill="none" xmlns="http://www.w3.org/2000/svg">
<path d="M74.1656 53.3049C73.5183 52.4577 72.7086 51.748 71.7839 51.2173C70.8592 50.6866 69.8379 50.3457 68.7799 50.2141C64.7268 49.6553 61.0597 47.5148 58.5798 44.2605C56.1001 41.006 55.0093 36.9024 55.5458 32.8463C55.7513 31.2787 55.4891 29.6854 54.792 28.2664C54.0949 26.8473 52.9942 25.6659 51.6279 24.8705C50.2616 24.0751 48.6907 23.7012 47.1125 23.7956C45.5344 23.89 44.0194 24.4486 42.7576 25.4013C41.4959 26.354 40.5439 27.6582 40.021 29.1502C39.4982 30.6423 39.4277 32.2555 39.8188 33.7873C40.2097 35.3192 41.0447 36.7014 42.2187 37.7603C43.3925 38.8192 44.8533 39.5077 46.4172 39.7391C48.4373 40.0039 50.3852 40.6648 52.1493 41.684C53.9135 42.703 55.4591 44.0604 56.6977 45.678C57.9363 47.2956 58.8434 49.1418 59.3671 51.1107C59.8908 53.0796 60.0208 55.1325 59.7495 57.1517C59.5985 58.4513 59.7674 59.768 60.2418 60.9872C60.7162 62.2063 61.4817 63.291 62.4714 64.1467C63.4611 65.0023 64.6449 65.6029 65.9199 65.8961C67.1949 66.1894 68.5221 66.1663 69.7862 65.829C71.0503 65.4917 72.2126 64.8504 73.172 63.961C74.1314 63.0715 74.8586 61.961 75.2905 60.726C75.7223 59.491 75.8455 58.1693 75.6495 56.8758C75.4534 55.5823 74.944 54.3563 74.1656 53.3049Z" fill="white"/>
<path d="M24.2346 48.944C25.7021 49.5783 27.3256 49.7599 28.8968 49.4652C30.4682 49.1704 31.9156 48.413 33.0534 47.29C34.1913 46.1668 34.9676 44.7294 35.2828 43.1622C35.598 41.5948 35.4377 39.9691 34.8225 38.4935C34.0416 36.6116 33.6398 34.5941 33.6403 32.5566C33.6407 30.5192 34.0431 28.5018 34.8247 26.6203C35.6063 24.7387 36.7516 23.0299 38.1949 21.5918C39.6382 20.1537 41.3511 19.0147 43.2355 18.2399C44.6962 17.6308 45.9441 16.6033 46.8222 15.2867C47.7003 13.9701 48.1693 12.4231 48.1702 10.8405C48.1712 9.25786 47.7041 7.71029 46.8276 6.39266C45.9511 5.07493 44.7043 4.04589 43.2444 3.43509C41.7844 2.82429 40.1765 2.65888 38.6228 2.95987C37.0691 3.26076 35.639 4.01448 34.5127 5.12628C33.3863 6.23798 32.614 7.65805 32.2928 9.20771C31.9717 10.7574 32.1161 12.3674 32.7078 13.8352C34.2551 17.6226 34.239 21.869 32.663 25.6446C31.0869 29.4202 28.0793 32.4177 24.2984 33.981C22.803 34.5675 21.5181 35.5893 20.61 36.9143C19.7019 38.2393 19.2124 39.8063 19.2049 41.4125C19.1976 43.0188 19.6726 44.5903 20.5685 45.9235C21.4644 47.2569 22.7398 48.2905 24.2297 48.8906L24.2346 48.944Z" fill="white"/>
<path d="M44.6725 45.7528C43.6137 45.8876 42.5926 46.2322 41.6687 46.7666C40.7447 47.3009 39.9368 48.0141 39.292 48.8647C36.784 52.0942 33.0993 54.1994 29.0436 54.72C24.9877 55.2406 20.8908 54.1341 17.6484 51.6426C16.8098 50.9889 15.8496 50.5084 14.8236 50.2291C13.7977 49.9499 12.7264 49.8774 11.6722 50.0158C10.3755 50.1967 9.14266 50.6923 8.08154 51.4593C7.02033 52.2262 6.1631 53.2412 5.5845 54.4156C5.00582 55.5901 4.7235 56.8884 4.76198 58.1971C4.80057 59.5059 5.15877 60.7852 5.80553 61.9236C6.45228 63.062 7.36775 64.0248 8.47219 64.728C9.57664 65.4313 10.8363 65.8533 12.1414 65.9577C13.4466 66.062 14.7575 65.8453 15.9595 65.3265C17.1617 64.8077 18.2185 64.0025 19.0378 62.9813C20.2782 61.3637 21.8256 60.0068 23.5912 58.9883C25.3569 57.9698 27.3061 57.3095 29.3274 57.0455C31.3486 56.7816 33.4021 56.9188 35.3701 57.4497C37.3382 57.9806 39.1821 58.8945 40.7964 60.1391C41.8451 60.9253 43.0705 61.4425 44.3653 61.6455C45.6603 61.8487 46.9851 61.7313 48.2242 61.3039C49.4633 60.8765 50.5786 60.1521 51.4729 59.1939C52.3672 58.2357 53.0131 57.0728 53.3541 55.8073C53.6951 54.5417 53.7207 53.2119 53.429 51.9341C53.1371 50.6563 52.5366 49.4695 51.68 48.4774C50.8234 47.4854 49.7369 46.7184 48.5152 46.2434C47.2936 45.7685 45.9742 45.6 44.6725 45.7528Z" fill="white"/>
</svg>
