<svg width="276" height="79" viewBox="0 0 276 79" fill="none" xmlns="http://www.w3.org/2000/svg">
<path d="M107.766 29.3744C106.039 29.3744 104.365 29.1456 102.742 28.688C101.141 28.2096 99.8512 27.596 98.8736 26.8472L100.59 23.0408C101.526 23.7272 102.638 24.2784 103.928 24.6944C105.218 25.1104 106.507 25.3184 107.797 25.3184C109.232 25.3184 110.293 25.1104 110.979 24.6944C111.666 24.2576 112.009 23.6856 112.009 22.9784C112.009 22.4584 111.801 22.032 111.385 21.6992C110.99 21.3456 110.47 21.0648 109.825 20.8568C109.201 20.6488 108.348 20.42 107.266 20.1704C105.602 19.7752 104.24 19.38 103.179 18.9848C102.118 18.5896 101.203 17.9552 100.434 17.0816C99.6848 16.208 99.3104 15.0432 99.3104 13.5872C99.3104 12.3184 99.6536 11.1744 100.34 10.1552C101.026 9.1152 102.056 8.2936 103.429 7.6904C104.822 7.0872 106.518 6.7856 108.514 6.7856C109.908 6.7856 111.27 6.952 112.602 7.2848C113.933 7.6176 115.098 8.096 116.096 8.72L114.536 12.5576C112.518 11.4136 110.501 10.8416 108.483 10.8416C107.069 10.8416 106.018 11.0704 105.332 11.528C104.666 11.9856 104.334 12.5888 104.334 13.3376C104.334 14.0864 104.718 14.648 105.488 15.0224C106.278 15.376 107.474 15.7296 109.076 16.0832C110.74 16.4784 112.102 16.8736 113.163 17.2688C114.224 17.664 115.129 18.288 115.878 19.1408C116.647 19.9936 117.032 21.148 117.032 22.604C117.032 23.852 116.678 24.996 115.971 26.036C115.285 27.0552 114.245 27.8664 112.851 28.4696C111.458 29.0728 109.762 29.3744 107.766 29.3744ZM128.598 25.3496C129.471 25.3496 130.241 25.2248 130.906 24.9752C131.593 24.7048 132.227 24.2888 132.81 23.7272L135.399 26.5352C133.818 28.3448 131.51 29.2496 128.473 29.2496C126.58 29.2496 124.906 28.8856 123.45 28.1576C121.994 27.4088 120.87 26.3792 120.08 25.0688C119.29 23.7584 118.894 22.2712 118.894 20.6072C118.894 18.964 119.279 17.4872 120.049 16.1768C120.839 14.8456 121.91 13.816 123.262 13.088C124.635 12.3392 126.174 11.9648 127.88 11.9648C129.482 11.9648 130.938 12.308 132.248 12.9944C133.558 13.66 134.598 14.6376 135.368 15.9272C136.158 17.196 136.554 18.704 136.554 20.4512L124.136 22.8536C124.49 23.6856 125.041 24.3096 125.79 24.7256C126.559 25.1416 127.495 25.3496 128.598 25.3496ZM127.88 15.6464C126.653 15.6464 125.654 16.0416 124.885 16.832C124.115 17.6224 123.71 18.7144 123.668 20.108L131.842 18.5168C131.614 17.6432 131.146 16.9464 130.438 16.4264C129.731 15.9064 128.878 15.6464 127.88 15.6464ZM161.322 11.9648C163.423 11.9648 165.087 12.5888 166.314 13.8368C167.562 15.064 168.186 16.9152 168.186 19.3904V29H163.319V20.1392C163.319 18.808 163.038 17.82 162.477 17.1752C161.936 16.5096 161.156 16.1768 160.137 16.1768C158.993 16.1768 158.088 16.5512 157.422 17.3C156.757 18.028 156.424 19.12 156.424 20.576V29H151.557V20.1392C151.557 17.4976 150.496 16.1768 148.374 16.1768C147.251 16.1768 146.357 16.5512 145.691 17.3C145.025 18.028 144.693 19.12 144.693 20.576V29H139.825V12.2144H144.474V14.1488C145.098 13.4416 145.857 12.9008 146.752 12.5264C147.667 12.152 148.665 11.9648 149.747 11.9648C150.933 11.9648 152.004 12.204 152.961 12.6824C153.917 13.14 154.687 13.816 155.269 14.7104C155.956 13.8368 156.819 13.1608 157.859 12.6824C158.92 12.204 160.074 11.9648 161.322 11.9648ZM172.549 12.2144H177.416V29H172.549V12.2144ZM174.982 9.8744C174.088 9.8744 173.36 9.6144 172.798 9.0944C172.237 8.5744 171.956 7.9296 171.956 7.16C171.956 6.3904 172.237 5.7456 172.798 5.2256C173.36 4.7056 174.088 4.4456 174.982 4.4456C175.877 4.4456 176.605 4.6952 177.166 5.1944C177.728 5.6936 178.009 6.3176 178.009 7.0664C178.009 7.8776 177.728 8.5536 177.166 9.0944C176.605 9.6144 175.877 9.8744 174.982 9.8744ZM189.92 29.2496C188.152 29.2496 186.561 28.8856 185.147 28.1576C183.753 27.4088 182.661 26.3792 181.871 25.0688C181.08 23.7584 180.685 22.2712 180.685 20.6072C180.685 18.9432 181.08 17.456 181.871 16.1456C182.661 14.8352 183.753 13.816 185.147 13.088C186.561 12.3392 188.152 11.9648 189.92 11.9648C191.688 11.9648 193.269 12.3392 194.663 13.088C196.056 13.816 197.148 14.8352 197.939 16.1456C198.729 17.456 199.124 18.9432 199.124 20.6072C199.124 22.2712 198.729 23.7584 197.939 25.0688C197.148 26.3792 196.056 27.4088 194.663 28.1576C193.269 28.8856 191.688 29.2496 189.92 29.2496ZM189.92 25.256C191.168 25.256 192.188 24.84 192.978 24.008C193.789 23.1552 194.195 22.0216 194.195 20.6072C194.195 19.1928 193.789 18.0696 192.978 17.2376C192.188 16.3848 191.168 15.9584 189.92 15.9584C188.672 15.9584 187.643 16.3848 186.832 17.2376C186.02 18.0696 185.615 19.1928 185.615 20.6072C185.615 22.0216 186.02 23.1552 186.832 24.008C187.643 24.84 188.672 25.256 189.92 25.256ZM212.486 28.1888C212.008 28.5424 211.415 28.8128 210.708 29C210.022 29.1664 209.304 29.2496 208.555 29.2496C206.538 29.2496 204.988 28.74 203.906 27.7208C202.825 26.7016 202.284 25.204 202.284 23.228V8.5016H207.151V12.5888H211.301V16.3328H207.151V23.1656C207.151 23.8728 207.328 24.424 207.682 24.8192C208.035 25.1936 208.545 25.3808 209.21 25.3808C209.959 25.3808 210.625 25.1728 211.207 24.7568L212.486 28.1888ZM215.235 12.2144H220.103V29H215.235V12.2144ZM217.669 9.8744C216.775 9.8744 216.047 9.6144 215.485 9.0944C214.923 8.5744 214.643 7.9296 214.643 7.16C214.643 6.3904 214.923 5.7456 215.485 5.2256C216.047 4.7056 216.775 4.4456 217.669 4.4456C218.563 4.4456 219.291 4.6952 219.853 5.1944C220.415 5.6936 220.695 6.3176 220.695 7.0664C220.695 7.8776 220.415 8.5536 219.853 9.0944C219.291 9.6144 218.563 9.8744 217.669 9.8744ZM232.732 29.2496C230.943 29.2496 229.331 28.8856 227.896 28.1576C226.481 27.4088 225.369 26.3792 224.557 25.0688C223.767 23.7584 223.372 22.2712 223.372 20.6072C223.372 18.9432 223.767 17.456 224.557 16.1456C225.369 14.8352 226.481 13.816 227.896 13.088C229.331 12.3392 230.943 11.9648 232.732 11.9648C234.5 11.9648 236.039 12.3392 237.349 13.088C238.681 13.816 239.648 14.8664 240.251 16.2392L236.476 18.2672C235.602 16.728 234.344 15.9584 232.701 15.9584C231.432 15.9584 230.381 16.3744 229.549 17.2064C228.717 18.0384 228.301 19.172 228.301 20.6072C228.301 22.0424 228.717 23.176 229.549 24.008C230.381 24.84 231.432 25.256 232.701 25.256C234.365 25.256 235.623 24.4864 236.476 22.9472L240.251 25.0064C239.648 26.3376 238.681 27.3776 237.349 28.1264C236.039 28.8752 234.5 29.2496 232.732 29.2496ZM248.701 29.2496C247.307 29.2496 245.945 29.0832 244.613 28.7504C243.282 28.3968 242.221 27.96 241.431 27.44L243.053 23.9456C243.802 24.424 244.707 24.8192 245.768 25.1312C246.829 25.4224 247.869 25.568 248.888 25.568C250.947 25.568 251.977 25.0584 251.977 24.0392C251.977 23.5608 251.696 23.2176 251.134 23.0096C250.573 22.8016 249.709 22.6248 248.545 22.4792C247.172 22.2712 246.038 22.032 245.144 21.7616C244.249 21.4912 243.469 21.0128 242.804 20.3264C242.159 19.64 241.837 18.6624 241.837 17.3936C241.837 16.3328 242.138 15.3968 242.741 14.5856C243.365 13.7536 244.26 13.1088 245.425 12.6512C246.61 12.1936 248.004 11.9648 249.605 11.9648C250.791 11.9648 251.966 12.1 253.131 12.3704C254.317 12.62 255.294 12.9736 256.064 13.4312L254.441 16.8944C252.965 16.0624 251.353 15.6464 249.605 15.6464C248.565 15.6464 247.785 15.792 247.265 16.0832C246.745 16.3744 246.485 16.7488 246.485 17.2064C246.485 17.7264 246.766 18.0904 247.328 18.2984C247.889 18.5064 248.784 18.704 250.011 18.8912C251.384 19.12 252.507 19.3696 253.381 19.64C254.254 19.8896 255.013 20.3576 255.658 21.044C256.303 21.7304 256.625 22.6872 256.625 23.9144C256.625 24.9544 256.313 25.88 255.689 26.6912C255.065 27.5024 254.15 28.1368 252.944 28.5944C251.758 29.0312 250.344 29.2496 248.701 29.2496ZM112.165 40.7856C114.765 40.7856 116.793 41.6072 118.249 43.2504C119.705 44.8728 120.433 47.192 120.433 50.208V63H115.378V50.364C115.378 48.6168 114.962 47.3064 114.13 46.4328C113.319 45.5384 112.186 45.0912 110.73 45.0912C109.19 45.0912 107.953 45.5696 107.017 46.5264C106.102 47.4624 105.644 48.856 105.644 50.7072V63H100.59V41.16H105.488V43.812C106.237 42.8136 107.173 42.0648 108.296 41.5656C109.419 41.0456 110.709 40.7856 112.165 40.7856ZM125.422 41.16H130.476V58.8816H141.427V63H125.422V41.16ZM153.705 41.16C155.639 41.16 157.314 41.4824 158.728 42.1272C160.163 42.772 161.266 43.6872 162.035 44.8728C162.805 46.0584 163.19 47.4624 163.19 49.0848C163.19 50.6864 162.805 52.0904 162.035 53.2968C161.266 54.4824 160.163 55.3976 158.728 56.0424C157.314 56.6664 155.639 56.9784 153.705 56.9784H149.306V63H144.251V41.16H153.705ZM153.424 52.86C154.943 52.86 156.097 52.5376 156.887 51.8928C157.678 51.2272 158.073 50.2912 158.073 49.0848C158.073 47.8576 157.678 46.9216 156.887 46.2768C156.097 45.6112 154.943 45.2784 153.424 45.2784H149.306V52.86H153.424ZM191.851 47.2752C189.979 46.1936 187.972 45.4968 185.829 45.1848V63H180.775V45.1848C178.632 45.4968 176.615 46.1936 174.722 47.2752L173.006 43.5C174.504 42.6056 176.126 41.9296 177.873 41.472C179.62 41.0144 181.42 40.7856 183.271 40.7856C185.143 40.7856 186.952 41.0144 188.7 41.472C190.468 41.9296 192.09 42.6056 193.567 43.5L191.851 47.2752ZM202.241 59.3496C203.114 59.3496 203.884 59.2248 204.549 58.9752C205.236 58.7048 205.87 58.2888 206.453 57.7272L209.042 60.5352C207.461 62.3448 205.153 63.2496 202.116 63.2496C200.223 63.2496 198.549 62.8856 197.093 62.1576C195.637 61.4088 194.513 60.3792 193.723 59.0688C192.933 57.7584 192.537 56.2712 192.537 54.6072C192.537 52.964 192.922 51.4872 193.692 50.1768C194.482 48.8456 195.553 47.816 196.905 47.088C198.278 46.3392 199.817 45.9648 201.523 45.9648C203.125 45.9648 204.581 46.308 205.891 46.9944C207.201 47.66 208.241 48.6376 209.011 49.9272C209.801 51.196 210.197 52.704 210.197 54.4512L197.779 56.8536C198.133 57.6856 198.684 58.3096 199.433 58.7256C200.202 59.1416 201.138 59.3496 202.241 59.3496ZM201.523 49.6464C200.296 49.6464 199.297 50.0416 198.528 50.832C197.758 51.6224 197.353 52.7144 197.311 54.108L205.485 52.5168C205.257 51.6432 204.789 50.9464 204.081 50.4264C203.374 49.9064 202.521 49.6464 201.523 49.6464ZM230.503 46.2144V63H225.855V61.0656C224.648 62.5216 222.901 63.2496 220.613 63.2496C219.032 63.2496 217.597 62.896 216.307 62.1888C215.039 61.4816 214.04 60.4728 213.312 59.1624C212.584 57.852 212.22 56.3336 212.22 54.6072C212.22 52.8808 212.584 51.3624 213.312 50.052C214.04 48.7416 215.039 47.7328 216.307 47.0256C217.597 46.3184 219.032 45.9648 220.613 45.9648C222.755 45.9648 224.43 46.6408 225.636 47.9928V46.2144H230.503ZM221.455 59.256C222.683 59.256 223.702 58.84 224.513 58.008C225.324 57.1552 225.73 56.0216 225.73 54.6072C225.73 53.1928 225.324 52.0696 224.513 51.2376C223.702 50.3848 222.683 49.9584 221.455 49.9584C220.207 49.9584 219.178 50.3848 218.367 51.2376C217.555 52.0696 217.15 53.1928 217.15 54.6072C217.15 56.0216 217.555 57.1552 218.367 58.008C219.178 58.84 220.207 59.256 221.455 59.256ZM256.506 45.9648C258.607 45.9648 260.271 46.5888 261.498 47.8368C262.746 49.064 263.37 50.9152 263.37 53.3904V63H258.503V54.1392C258.503 52.808 258.222 51.82 257.661 51.1752C257.12 50.5096 256.34 50.1768 255.321 50.1768C254.177 50.1768 253.272 50.5512 252.606 51.3C251.941 52.028 251.608 53.12 251.608 54.576V63H246.741V54.1392C246.741 51.4976 245.68 50.1768 243.558 50.1768C242.435 50.1768 241.541 50.5512 240.875 51.3C240.21 52.028 239.877 53.12 239.877 54.576V63H235.01V46.2144H239.658V48.1488C240.282 47.4416 241.042 46.9008 241.936 46.5264C242.851 46.152 243.85 45.9648 244.931 45.9648C246.117 45.9648 247.188 46.204 248.145 46.6824C249.102 47.14 249.871 47.816 250.454 48.7104C251.14 47.8368 252.003 47.1608 253.043 46.6824C254.104 46.204 255.258 45.9648 256.506 45.9648Z" fill="white"/>
<path d="M74.1655 53.3049C73.5182 52.4577 72.7086 51.748 71.7838 51.2173C70.8592 50.6866 69.8379 50.3457 68.7799 50.2141C64.7267 49.6553 61.0596 47.5148 58.5798 44.2605C56.1 41.006 55.0092 36.9024 55.5457 32.8463C55.7512 31.2787 55.489 29.6854 54.7919 28.2664C54.0949 26.8473 52.9941 25.6659 51.6279 24.8705C50.2615 24.0751 48.6906 23.7012 47.1124 23.7956C45.5343 23.89 44.0193 24.4486 42.7576 25.4013C41.4959 26.354 40.5438 27.6582 40.0209 29.1502C39.4981 30.6423 39.4277 32.2555 39.8187 33.7873C40.2097 35.3192 41.0446 36.7014 42.2186 37.7603C43.3925 38.8192 44.8532 39.5077 46.4171 39.7391C48.4372 40.0039 50.3851 40.6648 52.1493 41.684C53.9134 42.703 55.4591 44.0604 56.6976 45.678C57.9362 47.2956 58.8433 49.1418 59.367 51.1107C59.8908 53.0796 60.0207 55.1325 59.7495 57.1517C59.5984 58.4513 59.7674 59.768 60.2418 60.9872C60.7162 62.2063 61.4816 63.291 62.4713 64.1467C63.461 65.0023 64.6448 65.6029 65.9198 65.8961C67.1948 66.1894 68.5221 66.1663 69.7861 65.829C71.0502 65.4917 72.2125 64.8504 73.1719 63.961C74.1313 63.0715 74.8586 61.961 75.2904 60.726C75.7222 59.491 75.8455 58.1693 75.6495 56.8758C75.4533 55.5823 74.944 54.3563 74.1655 53.3049Z" fill="white"/>
<path d="M24.2347 48.944C25.7022 49.5783 27.3257 49.7599 28.8969 49.4652C30.4683 49.1704 31.9157 48.413 33.0535 47.29C34.1914 46.1668 34.9677 44.7294 35.2829 43.1622C35.5981 41.5948 35.4378 39.9691 34.8226 38.4935C34.0417 36.6116 33.6399 34.5941 33.6403 32.5566C33.6408 30.5192 34.0432 28.5018 34.8248 26.6203C35.6064 24.7387 36.7517 23.0299 38.195 21.5918C39.6383 20.1537 41.3512 19.0147 43.2356 18.2399C44.6963 17.6308 45.9442 16.6033 46.8223 15.2867C47.7003 13.9701 48.1694 12.4231 48.1703 10.8405C48.1713 9.25786 47.7041 7.71029 46.8276 6.39266C45.9511 5.07493 44.7044 4.04589 43.2445 3.43509C41.7845 2.82429 40.1765 2.65888 38.6229 2.95987C37.0692 3.26076 35.6391 4.01448 34.5128 5.12628C33.3864 6.23798 32.6141 7.65805 32.2929 9.20771C31.9718 10.7574 32.1162 12.3674 32.7079 13.8352C34.2552 17.6226 34.2391 21.869 32.6631 25.6446C31.087 29.4202 28.0794 32.4177 24.2985 33.981C22.8031 34.5675 21.5182 35.5893 20.6101 36.9143C19.7019 38.2393 19.2124 39.8063 19.205 41.4125C19.1977 43.0188 19.6727 44.5903 20.5686 45.9235C21.4645 47.2569 22.7399 48.2905 24.2298 48.8906L24.2347 48.944Z" fill="white"/>
<path d="M44.6724 45.7528C43.6137 45.8876 42.5925 46.2322 41.6686 46.7666C40.7447 47.3009 39.9367 48.0141 39.2919 48.8647C36.7839 52.0942 33.0992 54.1994 29.0435 54.72C24.9877 55.2406 20.8907 54.1341 17.6484 51.6426C16.8097 50.9889 15.8495 50.5084 14.8235 50.2291C13.7976 49.9499 12.7264 49.8774 11.6721 50.0158C10.3754 50.1967 9.1426 50.6923 8.08148 51.4593C7.02027 52.2262 6.16304 53.2412 5.58444 54.4156C5.00576 55.5901 4.72344 56.8884 4.76192 58.1971C4.80051 59.5059 5.15871 60.7852 5.80547 61.9236C6.45222 63.062 7.36769 64.0248 8.47213 64.728C9.57658 65.4313 10.8363 65.8533 12.1414 65.9577C13.4465 66.062 14.7574 65.8453 15.9595 65.3265C17.1616 64.8077 18.2185 64.0025 19.0377 62.9813C20.2782 61.3637 21.8255 60.0068 23.5911 58.9883C25.3569 57.9698 27.3061 57.3095 29.3273 57.0455C31.3485 56.7816 33.402 56.9188 35.37 57.4497C37.3381 57.9806 39.1821 58.8945 40.7963 60.1391C41.845 60.9253 43.0704 61.4425 44.3653 61.6455C45.6602 61.8487 46.9851 61.7313 48.2241 61.3039C49.4632 60.8765 50.5785 60.1521 51.4728 59.1939C52.3671 58.2357 53.013 57.0728 53.354 55.8073C53.695 54.5417 53.7207 53.2119 53.4289 51.9341C53.1371 50.6563 52.5366 49.4695 51.6799 48.4774C50.8233 47.4854 49.7368 46.7184 48.5152 46.2434C47.2935 45.7685 45.9741 45.6 44.6724 45.7528Z" fill="white"/>
</svg>
