<svg xmlns="http://www.w3.org/2000/svg" viewBox="0 0 534.727 275.846" fill="#ffffff"><path d="M252.5,92.364l4.19-5.663A16.643,16.643,0,0,0,261,89.28a12.963,12.963,0,0,0,5.089,1.059,6.433,6.433,0,0,0,3.821-.875,2.554,2.554,0,0,0,1.152-2.072,3.011,3.011,0,0,0-1.013-2.188,14.272,14.272,0,0,0-4.053-2.279,15.085,15.085,0,0,1-6.124-4.029,8.276,8.276,0,0,1-1.842-5.365,9.855,9.855,0,0,1,3.177-6.906q3.177-3.269,9.855-3.269a19.033,19.033,0,0,1,10.175,2.993l-3.683,5.893a13,13,0,0,0-7.6-2.3,5.842,5.842,0,0,0-3.568.9A2.5,2.5,0,0,0,265.21,72.8a2.416,2.416,0,0,0,.989,1.819,18.475,18.475,0,0,0,4.4,2.233,14.717,14.717,0,0,1,6.286,4.1,8.74,8.74,0,0,1,1.91,5.617,9.448,9.448,0,0,1-3.43,7.229q-3.432,3.085-10.338,3.085a18.264,18.264,0,0,1-6.63-1.243A23.916,23.916,0,0,1,252.5,92.364Z"/><path d="M282.615,86.609a16.244,16.244,0,0,1,1.819-7.69,14.3,14.3,0,0,1,4.972-5.479,12.8,12.8,0,0,1,7.069-2.027,9.154,9.154,0,0,1,6.838,2.6,9.585,9.585,0,0,1,2.555,7.022,14.793,14.793,0,0,1-.253,2.464q-.253,1.451-.576,2.648H289.291q.14,4.833,5.481,4.835a14.423,14.423,0,0,0,6.538-1.8l1.611,5.111a17.861,17.861,0,0,1-9.3,2.578q-5.205,0-8.1-2.97A10.044,10.044,0,0,1,282.615,86.609Zm13.307-9.716a5.28,5.28,0,0,0-3.545,1.405,8.375,8.375,0,0,0-2.394,3.66h9.485c0-.184.007-.36.023-.529s.023-.33.023-.483Q299.514,76.893,295.922,76.893Z"/><path d="M308.354,96.233l5.157-24.221h6.815l-.69,3.269a8.732,8.732,0,0,1,7.321-3.868,6.2,6.2,0,0,1,6.446,4.652,10.063,10.063,0,0,1,8.611-4.652,6.928,6.928,0,0,1,5.249,2.073,7.792,7.792,0,0,1,1.98,5.618,14.3,14.3,0,0,1-.276,2.808l-3.039,14.321h-6.815l2.763-12.986a11.517,11.517,0,0,0,.23-1.979q0-3.408-3.131-3.407a5.111,5.111,0,0,0-3.569,1.611,8,8,0,0,0-2.233,4.282L330.5,96.233h-6.769L326.5,83.247a11.537,11.537,0,0,0,.231-1.979q0-3.408-3.131-3.407a5.068,5.068,0,0,0-3.546,1.587,7.95,7.95,0,0,0-2.21,4.26l-2.671,12.525Z"/><path d="M352.605,96.233l5.157-24.221h6.815L359.42,96.233Zm5.71-31.22a3.961,3.961,0,0,1,1.22-2.946,4.253,4.253,0,0,1,3.108-1.2,4.209,4.209,0,0,1,3.039,1.1,3.729,3.729,0,0,1,1.151,2.809,3.877,3.877,0,0,1-1.243,2.9,4.33,4.33,0,0,1-3.131,1.2,4.173,4.173,0,0,1-3.017-1.082A3.69,3.69,0,0,1,358.315,65.013Z"/><path d="M367.017,86.609a15.8,15.8,0,0,1,1.841-7.551,14.755,14.755,0,0,1,5.089-5.549,13.417,13.417,0,0,1,7.437-2.1,9.928,9.928,0,0,1,10.36,10.177,16.08,16.08,0,0,1-1.842,7.69,14.643,14.643,0,0,1-5.065,5.525,13.4,13.4,0,0,1-7.413,2.072,10,10,0,0,1-10.407-10.268Zm7.046-.6q0,4.789,4.143,4.789a5.636,5.636,0,0,0,4.536-2.578,9.631,9.631,0,0,0,1.957-5.986q0-4.743-4.144-4.744a5.711,5.711,0,0,0-4.513,2.488A9.378,9.378,0,0,0,374.063,86.01Z"/><path d="M396.3,90.246a18.36,18.36,0,0,1,.368-3.222L398.6,78h-3.316l1.289-5.986h3.27L401,66.671h6.815l-1.152,5.341h6.217L411.589,78h-6.171l-1.934,9.026a7.605,7.605,0,0,0-.138,1.381q0,2.209,2.762,2.21a11.165,11.165,0,0,0,2.534-.323l-.553,6.078a17.772,17.772,0,0,1-4.145.507,8.063,8.063,0,0,1-5.686-1.818A6.259,6.259,0,0,1,396.3,90.246Z"/><path d="M412.463,96.233l5.157-24.221h6.816l-5.158,24.221Zm5.71-31.22a3.959,3.959,0,0,1,1.221-2.946,4.249,4.249,0,0,1,3.107-1.2,4.206,4.206,0,0,1,3.039,1.1,3.726,3.726,0,0,1,1.151,2.809,3.877,3.877,0,0,1-1.243,2.9,4.33,4.33,0,0,1-3.131,1.2A4.173,4.173,0,0,1,419.3,67.8,3.688,3.688,0,0,1,418.173,65.013Z"/><path d="M426.922,86.517a15.813,15.813,0,0,1,1.818-7.528,14.686,14.686,0,0,1,4.973-5.5,12.754,12.754,0,0,1,7.16-2.073,10.864,10.864,0,0,1,8.566,3.592l-4.284,4.7a5.775,5.775,0,0,0-4.374-1.98,6.017,6.017,0,0,0-4.926,2.44,8.929,8.929,0,0,0-1.934,5.71q0,4.7,4.466,4.7a7.186,7.186,0,0,0,2.832-.576,11.632,11.632,0,0,0,2.647-1.588l2.671,5.111a14.146,14.146,0,0,1-9.209,3.361q-4.972,0-7.69-2.97A10.532,10.532,0,0,1,426.922,86.517Z"/><path d="M448.7,93.838l3.085-5.433a14.527,14.527,0,0,0,3.407,2,9.933,9.933,0,0,0,3.96.853q3.086,0,3.085-1.842a1.765,1.765,0,0,0-.6-1.243,8.921,8.921,0,0,0-2.625-1.428,11.228,11.228,0,0,1-4.858-3.085,6.341,6.341,0,0,1-1.45-4.1,7.462,7.462,0,0,1,2.739-5.687q2.74-2.461,7.621-2.464a16.486,16.486,0,0,1,4.651.622A15.664,15.664,0,0,1,471.5,73.67l-2.671,5.065a11.947,11.947,0,0,0-6.4-1.888,3.519,3.519,0,0,0-2.233.553,1.417,1.417,0,0,0-.116,2.325,7.8,7.8,0,0,0,2.3,1.221,12.323,12.323,0,0,1,5.433,3.246,6.564,6.564,0,0,1,1.612,4.351,7.62,7.62,0,0,1-2.671,5.986q-2.671,2.349-8.15,2.348a17.511,17.511,0,0,1-5.756-.921A13.615,13.615,0,0,1,448.7,93.838Z"/><path d="M123.6,225.68c31.1-12.458,36.812-31.1,33.114-50.646-6.451-34.08-63.622-43.028-71.578-82.788C78.268,57.915,113.07,23.62,171.075,42.182c-48.784,3.89-55,41.343-45.829,57.131,18.87,32.486,69.69,28,73.427,74.85C202.159,217.876,148.02,225.68,123.6,225.68Z"/><path d="M235.156,211.13l18.763-88.4H265.63l30.1,51.505,10.956-51.253h19.644l-18.888,88.4H295.853l-30.223-51.5L254.8,211.13Z"/><path d="M329.979,211.13l18.762-88.149h19.645L353.526,193H389.92l-3.9,18.134Z"/><path d="M401.126,211.13l18.763-88.149H449.1q14.858,0,23.36,7.87a25.462,25.462,0,0,1,8.5,19.456q0,15.743-11.648,25.689T438.9,185.945H426.186l-5.415,25.185Zm44.956-70.016H435.63l-5.667,26.7h11.208q8.562,0,13.663-4.47a14.349,14.349,0,0,0,5.1-11.27Q459.934,141.114,446.082,141.114Z"/><path d="M195.946,105.46c6.6-5.676,10.677-13.463,10.677-22.059,0-17.367-16.624-31.446-37.129-31.446s-37.13,14.079-37.13,31.446,16.624,31.445,37.13,31.445a43.288,43.288,0,0,0,11.326-1.5,25.225,25.225,0,0,0,6.212,3.021c8.418,2.8,18.332,2.076,27.425-.955A37.161,37.161,0,0,1,195.946,105.46Z"/><path d="M95.391,144.587c-25.131,0-45.5,17.254-45.5,38.537,0,10.538,5,20.084,13.091,27.041a45.569,45.569,0,0,1-22.693,12.2c11.145,3.715,23.3,4.6,33.612,1.171a30.892,30.892,0,0,0,7.612-3.7,53.017,53.017,0,0,0,13.881,1.833c25.131,0,45.5-17.254,45.5-38.538S120.522,144.587,95.391,144.587Z"/></svg>