<?xml version="1.0" standalone="no"?>
<!DOCTYPE svg PUBLIC "-//W3C//DTD SVG 20010904//EN"
 "http://www.w3.org/TR/2001/REC-SVG-20010904/DTD/svg10.dtd">
<svg version="1.0" xmlns="http://www.w3.org/2000/svg"
 width="552.000000pt" height="552.000000pt" viewBox="0 0 552.000000 552.000000"
 preserveAspectRatio="xMidYMid meet">
<metadata>
Created by potrace 1.14, written by Peter Selinger 2001-2017
</metadata>
<g transform="translate(0.000000,552.000000) scale(0.100000,-0.100000)"
fill="#000000" stroke="none">
<path d="M2695 4765 c-99 -15 -243 -53 -272 -71 -12 -8 -31 -14 -43 -14 -11 0
-20 -4 -20 -10 0 -5 -8 -10 -17 -10 -10 0 -29 -9 -43 -20 -14 -11 -29 -20 -33
-20 -4 0 -36 -19 -70 -42 -117 -80 -259 -239 -306 -343 -7 -16 -19 -41 -26
-55 -11 -20 -27 -70 -41 -122 -1 -5 -2 -9 -4 -10 -7 -9 -23 -141 -23 -188 0
-136 31 -275 85 -390 64 -134 154 -251 295 -380 100 -92 172 -149 358 -282 44
-31 85 -60 90 -65 6 -5 33 -24 60 -43 28 -18 52 -36 55 -40 3 -3 21 -17 40
-30 19 -13 37 -27 40 -30 3 -3 28 -23 55 -45 49 -39 185 -172 215 -211 93
-120 155 -263 167 -388 8 -81 8 -233 0 -271 -4 -16 -9 -40 -11 -53 -9 -41 -45
-131 -73 -181 -53 -91 -121 -165 -239 -260 -16 -13 -95 -63 -124 -79 -51 -28
-105 -56 -110 -57 -16 -4 -100 -45 -100 -49 0 -4 99 0 215 9 117 9 180 18 290
40 39 8 79 16 90 18 11 2 27 7 35 10 8 3 35 11 60 17 286 73 548 237 678 426
28 41 81 163 98 224 26 96 28 299 3 415 -20 97 -51 189 -82 245 -47 85 -70
120 -78 120 -5 0 -9 6 -9 14 0 24 -175 182 -283 254 -58 40 -108 72 -110 72
-2 0 -56 29 -120 65 -64 36 -121 65 -127 65 -5 0 -10 5 -10 12 0 6 -3 8 -6 5
-4 -4 -19 2 -34 13 -16 11 -31 20 -34 20 -4 0 -43 23 -87 50 -44 28 -84 50
-89 50 -5 0 -10 3 -12 8 -1 4 -30 25 -62 47 -32 22 -94 74 -136 115 -175 171
-241 308 -241 503 0 51 2 103 5 117 22 101 32 133 61 196 87 191 239 335 451
428 82 35 205 75 258 82 38 6 75 12 101 18 11 2 35 5 53 5 17 1 32 5 32 9 0
11 -192 60 -295 76 -22 3 -64 9 -92 14 -77 13 -335 11 -428 -3z"/>
<path d="M3529 4486 c-2 -2 -40 -7 -84 -10 -44 -3 -91 -8 -105 -11 -14 -3 -35
-8 -48 -11 -127 -26 -273 -110 -370 -213 -38 -40 -116 -154 -117 -170 -1 -3
-9 -31 -20 -61 -30 -85 -27 -271 6 -331 7 -13 11 -25 10 -27 -4 -5 42 -96 56
-110 7 -7 13 -17 13 -21 0 -13 109 -119 154 -150 93 -64 162 -94 286 -128 75
-20 261 -23 351 -7 68 13 74 13 106 -6 125 -73 368 -94 538 -46 6 2 27 6 48
11 20 4 37 11 37 16 0 5 -3 8 -7 7 -45 -9 -271 108 -327 171 -20 22 -20 22 17
57 73 72 148 208 164 299 7 42 7 163 0 205 -24 140 -128 297 -252 379 -22 14
-42 29 -45 32 -3 3 -34 20 -70 37 -82 39 -199 71 -270 74 -30 2 -58 6 -61 11
-3 4 -7 5 -10 3z"/>
<path d="M1938 2625 c-2 -2 -28 -5 -58 -9 -60 -6 -72 -9 -145 -29 -27 -8 -56
-16 -64 -18 -32 -8 -209 -100 -221 -114 -7 -8 -16 -15 -21 -15 -23 0 -137
-115 -193 -195 -196 -278 -156 -658 95 -894 l39 -36 -32 -31 c-18 -16 -55 -45
-83 -64 -27 -19 -52 -37 -55 -40 -22 -22 -220 -100 -255 -100 -8 0 -15 -4 -15
-8 0 -10 161 -49 247 -61 64 -8 226 -6 277 3 92 17 145 33 212 66 l74 36 101
-16 c264 -41 523 9 730 142 79 51 118 86 210 189 32 36 117 201 123 239 3 14
5 25 6 25 14 0 19 236 7 295 -49 229 -214 423 -458 539 -74 36 -165 66 -224
76 -11 2 -36 6 -55 10 -32 6 -237 14 -242 10z"/>
</g>
</svg>
